<svg width="48" height="48" viewBox="0 0 48 48" fill="none" xmlns="http://www.w3.org/2000/svg">
<rect width="48" height="48" rx="24" fill="white"/>
<path d="M22.2422 30.4718C17.6974 30.4718 14 26.7772 14 22.2359C14 17.6946 17.6974 14 22.2422 14C26.7869 14 30.4844 17.6946 30.4844 22.2359C30.4844 26.7772 26.7869 30.4718 22.2422 30.4718ZM22.2422 15.5613C18.559 15.5613 15.5625 18.5555 15.5625 22.2359C15.5625 25.9163 18.559 28.9105 22.2422 28.9105C25.9254 28.9105 28.9219 25.9163 28.9219 22.2359C28.9219 18.5555 25.9254 15.5613 22.2422 15.5613ZM33.7712 33.7713C34.0763 33.4665 34.0763 32.9722 33.7712 32.6673L30.2751 29.1739C29.97 28.869 29.4753 28.869 29.1702 29.1739C28.8651 29.4788 28.8651 29.9731 29.1702 30.2779L32.6663 33.7713C32.8188 33.9238 33.0188 34 33.2188 34C33.4187 34 33.6186 33.9238 33.7712 33.7713Z" fill="#63A60E"/>
</svg>
