<svg width="34" height="23" viewBox="0 0 34 23" fill="none" xmlns="http://www.w3.org/2000/svg">
<path d="M33.9123 14.3394L32.1913 11.861C31.4313 10.7659 30.1402 10.1119 28.7366 10.1119H24.2858V7.70135C24.2858 6.22953 23.0141 5.03266 21.4503 5.03266H13.1183C12.6507 2.73454 10.5014 0.990967 7.9253 0.990967C5.00828 0.990967 2.63539 3.22456 2.63539 5.96969C2.63539 7.69582 3.57448 9.21851 4.99624 10.1119H0.5398C0.24149 10.1119 0 10.3392 0 10.62C0 10.9007 0.24149 11.128 0.5398 11.128H5.93657V12.1438H3.77767C3.47967 12.1438 3.23818 12.3711 3.23818 12.6519C3.23818 12.9326 3.47967 13.1596 3.77767 13.1596H5.93657V14.1754H0.5398C0.24149 14.1754 0 14.4027 0 14.6835C0 14.9642 0.24149 15.1915 0.5398 15.1915H5.93657V17.4411C4.98512 17.8361 4.31748 18.7295 4.31748 19.7694V20.2708C4.31748 20.5516 4.55927 20.7789 4.85728 20.7789H9.64383C9.95079 22.0216 11.1348 22.9517 12.5476 22.9517C13.9607 22.9517 15.1444 22.0216 15.4513 20.7789H25.8344C26.1417 22.0216 27.3257 22.9517 28.7382 22.9517C30.1507 22.9517 31.335 22.0216 31.6419 20.7789H33.4605C33.7588 20.7789 34 20.5516 34 20.2708V14.6172C34 14.5184 33.9694 14.4216 33.9123 14.3394V14.3394ZM3.71468 5.96969C3.71468 3.78463 5.60367 2.00677 7.9253 2.00677C10.2472 2.00677 12.1359 3.78463 12.1359 5.96969C12.1359 8.15475 10.2472 9.93262 7.9253 9.93262C5.60367 9.93262 3.71468 8.15475 3.71468 5.96969ZM7.01586 15.1915H8.09515C8.39346 15.1915 8.63495 14.9642 8.63495 14.6835C8.63495 14.4027 8.39346 14.1754 8.09515 14.1754H7.01586V13.1596H10.7938C11.0918 13.1596 11.3333 12.9326 11.3333 12.6519C11.3333 12.3711 11.0918 12.1438 10.7938 12.1438H7.01586V11.128H14.0317C14.3297 11.128 14.5715 10.9007 14.5715 10.62C14.5715 10.3392 14.3297 10.1119 14.0317 10.1119H10.8544C12.2542 9.23217 13.1828 7.74174 13.2112 6.04846H21.4506C22.4187 6.04846 23.2065 6.79018 23.2065 7.70135V17.2231H7.02265C7.02049 17.2231 7.01833 17.2237 7.01586 17.2237V15.1915ZM23.2065 19.7628H15.5004C15.4155 19.1786 15.14 18.6519 14.7333 18.2389H23.2065V19.7628ZM7.02265 18.2389H10.3618C9.95542 18.6519 9.67966 19.1786 9.59504 19.7628H5.39677C5.40047 18.9222 6.12865 18.2389 7.02265 18.2389ZM12.5476 21.9359C11.4979 21.9359 10.6435 21.132 10.6435 20.1438C10.6435 19.1559 11.4979 18.3517 12.5476 18.3517C13.5975 18.3517 14.4517 19.1559 14.4517 20.1438C14.4517 21.132 13.5975 21.9359 12.5476 21.9359ZM28.7382 21.9359C27.6885 21.9359 26.8341 21.132 26.8341 20.1438C26.8341 19.1559 27.6885 18.3517 28.7382 18.3517C29.7881 18.3517 30.6423 19.1559 30.6423 20.1438C30.6423 21.132 29.7881 21.9359 28.7382 21.9359ZM32.9207 19.7628H31.691C31.4925 18.3947 30.2455 17.3359 28.7382 17.3359C27.2309 17.3359 25.9842 18.3947 25.7853 19.7628H24.2858V11.128H28.7366C29.7739 11.128 30.7278 11.6096 31.288 12.4165L32.9207 14.7683V19.7628Z" fill="white"/>
<path d="M29.6211 20.1439C29.6211 20.6029 29.2258 20.9749 28.7382 20.9749C28.2506 20.9749 27.8553 20.6029 27.8553 20.1439C27.8553 19.685 28.2506 19.313 28.7382 19.313C29.2258 19.313 29.6211 19.685 29.6211 20.1439Z" fill="white"/>
<path d="M13.4305 20.1439C13.4305 20.6029 13.0352 20.9749 12.5476 20.9749C12.0603 20.9749 11.665 20.6029 11.665 20.1439C11.665 19.685 12.0603 19.313 12.5476 19.313C13.0352 19.313 13.4305 19.685 13.4305 20.1439Z" fill="white"/>
<path d="M8.63497 5.96977V3.7475C8.63497 3.46674 8.39348 3.23975 8.09517 3.23975C7.79717 3.23975 7.55568 3.46674 7.55568 3.7475V5.8041L6.45416 7.22622C6.27845 7.45292 6.33125 7.77031 6.57212 7.93539C6.66847 8.00166 6.77964 8.03334 6.88989 8.03334C7.05634 8.03334 7.22062 7.96097 7.32624 7.82437L8.53152 6.26884C8.59853 6.18223 8.63497 6.0776 8.63497 5.96977Z" fill="white"/>
<path d="M28.5563 11.6357H27.5239C27.2256 11.6357 26.9841 11.863 26.9841 12.1438V15.6992C26.9841 15.98 27.2256 16.2073 27.5239 16.2073H31.1562C31.4946 16.2073 31.7976 16.0425 31.9674 15.7673C32.1373 15.492 32.1376 15.1624 31.9702 14.8878L30.7099 12.8117C30.2699 12.0868 29.4444 11.6357 28.5563 11.6357V11.6357ZM28.0637 15.1915V12.6518H28.5563C29.0581 12.6518 29.5241 12.9062 29.7727 13.316L30.9113 15.1915H28.0637Z" fill="white"/>
</svg>
