<svg width="30" height="24" viewBox="0 0 30 24" fill="none" xmlns="http://www.w3.org/2000/svg">
<path d="M28.3904 17.8383L24.1654 14.3872C23.598 13.9263 22.8382 13.6724 22.0263 13.6724C21.1814 13.6724 20.3836 13.944 19.7805 14.4368L18.1358 15.7793C16.8579 15.1993 15.1593 14.4017 13.3958 12.9618C11.6344 11.5232 10.6573 10.1404 9.94334 9.09137L11.5895 7.7483C12.8134 6.74695 12.8385 5.14046 11.6455 4.16734L7.42138 0.718384C6.85556 0.255127 6.09577 0 5.28181 0C4.45575 0 3.67431 0.259669 3.07463 0.732306C2.71185 0.970846 0.891276 2.28301 0.212749 4.9891C-0.737261 8.77681 1.44549 12.4212 7.7468 17.568C14.7859 23.3134 20.7952 23.76 22.4693 23.76C22.8178 23.76 23.0281 23.7424 23.0842 23.7371C26.367 23.4229 27.5425 22.2326 28.4007 21.3634C29.5127 20.237 29.5089 18.7548 28.3904 17.8383ZM26.9885 20.4339C26.1818 21.2508 25.4199 22.0223 22.8732 22.2661C22.8719 22.2662 22.7326 22.2789 22.4693 22.2789C20.9715 22.2789 15.5754 21.8636 9.02948 16.5208C3.21853 11.7744 1.17896 8.51941 1.98979 5.28609C2.58161 2.92577 4.15282 1.92254 4.21389 1.88443L4.26807 1.85175L4.31559 1.81284C4.57788 1.59889 4.92096 1.481 5.28169 1.481C5.61013 1.481 5.9139 1.58151 6.13785 1.76496L10.363 5.2147C10.8491 5.61122 10.8232 6.27846 10.306 6.70163L8.44431 8.22035L8.41372 8.24651C7.92856 8.68282 7.98563 9.27245 8.25288 9.65643C9.02404 10.7926 10.0803 12.3488 12.1129 14.0088C14.1387 15.6628 16.0419 16.5245 17.4296 17.153C17.5686 17.2166 17.8554 17.3235 18.2144 17.3235C18.6384 17.3235 19.0277 17.1769 19.3159 16.9099L21.063 15.4838C21.3239 15.2707 21.6658 15.1533 22.0261 15.1533C22.3553 15.1533 22.6606 15.2541 22.8841 15.4356L27.1063 18.8843C27.6426 19.3238 27.4212 19.9957 26.9885 20.4339Z" fill="white"/>
<path d="M13.9772 3.70607C15.2072 3.85249 16.6554 4.62321 17.6667 5.66948C18.6875 6.72544 19.4343 8.23882 19.5692 9.52502C19.609 9.90446 19.9191 10.1856 20.2799 10.1856C20.3057 10.1856 20.3318 10.1842 20.358 10.1813C20.751 10.1372 21.0351 9.77186 20.9924 9.36527C20.8218 7.73943 19.9354 5.92204 18.6791 4.62232C17.4345 3.33473 15.6956 2.41997 14.1409 2.23484C13.7483 2.18775 13.3932 2.4796 13.3479 2.88579C13.3027 3.29198 13.5844 3.65927 13.9772 3.70607Z" fill="white"/>
<path d="M13.3084 6.80801C13.9737 6.8873 14.8943 7.39775 15.4974 8.02165C16.1057 8.65097 16.6001 9.61244 16.6729 10.308C16.7127 10.6875 17.0229 10.9687 17.3836 10.9687C17.4094 10.9687 17.4355 10.9673 17.4616 10.9644C17.8546 10.9203 18.1388 10.5549 18.0961 10.1484C17.9717 8.9608 17.2095 7.69849 16.5096 6.97438C15.8159 6.25669 14.6076 5.47205 13.4721 5.33669C13.079 5.2894 12.7243 5.58135 12.6791 5.98754C12.634 6.39383 12.9157 6.76121 13.3084 6.80801Z" fill="white"/>
</svg>
