<svg width="33" height="32" viewBox="0 0 33 32" fill="none" xmlns="http://www.w3.org/2000/svg">
<g clip-path="url(#clip0_20_42)">
<path d="M16.4487 7.78394C11.9428 7.78394 8.29492 11.4613 8.29492 15.9946C8.29492 20.5319 11.9468 24.2053 16.4487 24.2053C20.9546 24.2053 24.6025 20.5279 24.6025 15.9946C24.6025 11.4573 20.9506 7.78394 16.4487 7.78394ZM16.4487 21.3239C13.5238 21.3239 11.1563 18.9386 11.1563 15.9946C11.1563 13.0506 13.5251 10.6653 16.4487 10.6653C19.3723 10.6653 21.7411 13.0506 21.7411 15.9946C21.7424 18.9386 19.3736 21.3239 16.4487 21.3239Z" fill="white"/>
<path d="M22.9949 0.101248C20.0713 -0.0360854 12.8298 -0.0294187 9.90357 0.101248C7.33218 0.222581 5.064 0.847914 3.23543 2.68925C0.179415 5.76658 0.570023 9.91325 0.570023 15.9946C0.570023 22.2186 0.225758 26.2692 3.23543 29.2999C6.30336 32.3879 10.4809 31.9839 16.4486 31.9839C22.5712 31.9839 24.6844 31.9879 26.8493 31.1439C29.7928 29.9932 32.0146 27.3439 32.2318 22.5852C32.3695 19.6399 32.3616 12.3492 32.2318 9.40258C31.9696 3.78525 28.9758 0.378581 22.9949 0.101248ZM27.6226 27.2639C25.6193 29.2812 22.84 29.1012 16.4102 29.1012C9.7897 29.1012 7.13489 29.1999 5.19774 27.2439C2.96664 25.0079 3.37049 21.4172 3.37049 15.9732C3.37049 8.60658 2.61972 3.30125 9.96183 2.92258C11.6487 2.86258 12.1453 2.84258 16.3916 2.84258L16.4512 2.88258C23.5073 2.88258 29.0434 2.13858 29.3757 9.53058C29.4512 11.2172 29.4684 11.7239 29.4684 15.9932C29.4671 22.5826 29.5915 25.2719 27.6226 27.2639Z" fill="white"/>
<path d="M24.9255 9.37859C25.9778 9.37859 26.8309 8.51957 26.8309 7.45992C26.8309 6.40027 25.9778 5.54126 24.9255 5.54126C23.8732 5.54126 23.0201 6.40027 23.0201 7.45992C23.0201 8.51957 23.8732 9.37859 24.9255 9.37859Z" fill="white"/>
</g>
<defs>
<clipPath id="clip0_20_42">
<rect width="31.7783" height="32" fill="white" transform="translate(0.554199)"/>
</clipPath>
</defs>
</svg>
